<?xml version="1.0" standalone="no"?>
<!DOCTYPE svg PUBLIC "-//W3C//DTD SVG 20010904//EN"
 "http://www.w3.org/TR/2001/REC-SVG-20010904/DTD/svg10.dtd">
<svg version="1.0" xmlns="http://www.w3.org/2000/svg"
 width="400.000000pt" height="400.000000pt" viewBox="0 0 400.000000 400.000000"
 preserveAspectRatio="xMidYMid meet">

<g transform="translate(0.000000,400.000000) scale(0.100000,-0.100000)"
fill="#000000" stroke="none">
<path d="M1968 3353 c-10 -2 -18 -9 -18 -14 0 -5 -5 -9 -11 -9 -6 0 -59 -28
-117 -62 -59 -34 -126 -72 -150 -85 -23 -12 -52 -32 -65 -43 -12 -12 -42 -33
-67 -47 -24 -15 -49 -30 -55 -35 -5 -5 -23 -20 -40 -33 -16 -14 -33 -25 -37
-25 -4 0 -13 -6 -20 -12 -7 -7 -52 -47 -98 -87 -128 -113 -250 -242 -323 -343
-56 -78 -127 -189 -127 -199 0 -5 -4 -9 -10 -9 -5 0 -10 -6 -10 -12 -1 -7 -9
-31 -20 -53 -11 -22 -19 -46 -20 -52 0 -7 -4 -13 -10 -13 -5 0 -10 -6 -10 -12
0 -7 -6 -24 -13 -38 -7 -14 -21 -54 -31 -90 -10 -36 -21 -72 -26 -80 -4 -9
-11 -36 -15 -60 -4 -25 -12 -51 -19 -59 -16 -20 -16 -622 0 -642 6 -8 15 -36
19 -63 3 -27 10 -56 15 -65 5 -9 16 -47 25 -86 9 -38 23 -84 31 -102 8 -17 14
-38 14 -47 0 -9 5 -16 10 -16 6 0 10 -6 10 -12 0 -7 6 -25 14 -39 7 -14 16
-38 20 -53 4 -16 18 -45 32 -65 13 -19 24 -41 24 -48 0 -6 8 -14 18 -17 9 -3
263 -5 565 -5 l547 0 0 1370 c0 753 -3 1368 -7 1368 -5 -1 -16 -3 -25 -6z"/>
<path d="M2360 1448 l0 -827 505 0 c544 0 527 -1 485 52 -11 14 -39 58 -61 99
-23 40 -45 75 -49 78 -4 3 -18 23 -29 45 -28 51 -39 69 -73 118 -16 22 -28 46
-28 53 0 7 -4 14 -8 16 -9 4 -102 151 -102 162 0 4 -6 13 -12 20 -20 21 -88
129 -154 245 -12 21 -36 57 -53 81 -17 24 -31 49 -31 57 0 7 -4 13 -10 13 -5
0 -10 6 -10 14 0 8 -6 21 -13 28 -19 21 -67 97 -67 107 0 5 -6 16 -13 23 -18
18 -77 116 -77 127 0 5 -6 16 -14 24 -8 8 -40 56 -71 107 -31 51 -63 99 -71
107 -8 8 -14 20 -14 26 0 7 -7 21 -15 31 -13 18 -15 -78 -15 -806z"/>
</g>
</svg>
